<svg width="20" height="20" viewBox="0 0 20 20" fill="none" xmlns="http://www.w3.org/2000/svg">
<path d="M8.58945 6.01582C9.12451 4.68192 9.39205 4.01496 9.82669 3.92253C9.94098 3.89822 10.0591 3.89822 10.1734 3.92253C10.608 4.01496 10.8756 4.68192 11.4106 6.01582C11.7149 6.77439 11.867 7.15367 12.1517 7.41164C12.2316 7.484 12.3183 7.54844 12.4105 7.60407C12.7396 7.80238 13.1503 7.83917 13.9718 7.91274C15.3624 8.03728 16.0578 8.09955 16.2701 8.49601C16.3141 8.57811 16.344 8.66701 16.3585 8.75901C16.4289 9.2032 15.9178 9.66825 14.8955 10.5983L14.6116 10.8566C14.1336 11.2915 13.8946 11.5089 13.7564 11.7802C13.6735 11.943 13.6179 12.1183 13.5918 12.2991C13.5484 12.6005 13.6184 12.9159 13.7584 13.5467L13.8084 13.7721C14.0594 14.9034 14.1849 15.469 14.0282 15.7471C13.8875 15.9968 13.6283 16.1567 13.3419 16.1704C13.0232 16.1856 12.574 15.8196 11.6757 15.0876C11.0839 14.6053 10.7879 14.3642 10.4594 14.27C10.1592 14.1839 9.84086 14.1839 9.54066 14.27C9.21215 14.3642 8.91623 14.6053 8.32439 15.0876C7.42608 15.8196 6.97692 16.1856 6.65815 16.1704C6.37182 16.1567 6.11261 15.9968 5.97189 15.7471C5.81523 15.469 5.94073 14.9034 6.19173 13.7721L6.24173 13.5467C6.38169 12.9159 6.45167 12.6005 6.40825 12.2991C6.3822 12.1183 6.3266 11.943 6.24368 11.7802C6.10545 11.5089 5.86648 11.2915 5.38852 10.8566L5.10463 10.5984C4.08231 9.66825 3.57114 9.2032 3.64154 8.75901C3.65612 8.66701 3.68602 8.57811 3.72999 8.49601C3.94233 8.09955 4.63764 8.03728 6.02828 7.91274C6.84977 7.83917 7.26051 7.80238 7.58954 7.60407C7.68183 7.54844 7.76851 7.484 7.84836 7.41164C8.13303 7.15367 8.28517 6.77439 8.58945 6.01582Z" fill="#0066B3" stroke="#0066B3" stroke-width="2"/>
</svg>
