<svg width="24" height="24" viewBox="0 0 24 24" fill="none" xmlns="http://www.w3.org/2000/svg">
<mask id="path-1-inside-1_50_6869" fill="white">
<rect x="3" y="3" width="8" height="8" rx="1"/>
</mask>
<rect x="3" y="3" width="8" height="8" rx="1" stroke="#222222" stroke-width="3" mask="url(#path-1-inside-1_50_6869)"/>
<mask id="path-2-inside-2_50_6869" fill="white">
<rect x="3" y="13" width="8" height="8" rx="1"/>
</mask>
<rect x="3" y="13" width="8" height="8" rx="1" stroke="#222222" stroke-width="3" mask="url(#path-2-inside-2_50_6869)"/>
<mask id="path-3-inside-3_50_6869" fill="white">
<rect x="13" y="3" width="8" height="8" rx="1"/>
</mask>
<rect x="13" y="3" width="8" height="8" rx="1" stroke="#222222" stroke-width="3" mask="url(#path-3-inside-3_50_6869)"/>
<rect x="13.5" y="13.5" width="1" height="1" stroke="#222222"/>
<rect x="17.5" y="13.5" width="1" height="1" stroke="#222222"/>
<rect x="19.5" y="15.5" width="1" height="1" stroke="#222222"/>
<rect x="15.5" y="15.5" width="1" height="1" stroke="#222222"/>
<rect x="17.5" y="17.5" width="1" height="1" stroke="#222222"/>
<rect x="13.5" y="17.5" width="1" height="1" stroke="#222222"/>
<rect x="15.5" y="19.5" width="1" height="1" stroke="#222222"/>
<rect x="19.5" y="19.5" width="1" height="1" stroke="#222222"/>
</svg>
