<svg width="24" height="22" viewBox="0 0 24 22" fill="none" xmlns="http://www.w3.org/2000/svg">
<path d="M21.5012 15.1889V12.0284C21.5012 9.1876 20.3618 6.6223 18.5147 4.76289C16.6676 2.90101 14.1227 1.75241 11.3069 1.75241C8.48875 1.75241 5.94383 2.90101 4.09919 4.76289C2.25456 6.62476 1.11508 9.19006 1.11508 12.0284V15.1889H0V12.0284C0 5.7344 5.06299 0.630859 11.3069 0.630859C17.5509 0.630859 22.6139 5.7344 22.6139 12.0284V15.1889H21.5012Z" fill="#0066B3"/>
<path d="M11.3069 3.22852C6.46599 3.22852 2.54248 7.18346 2.54248 12.0632V15.1893H3.0622V12.2009C3.0622 7.53517 6.75391 3.75486 11.3069 3.75486C15.86 3.75486 19.5493 7.53517 19.5517 12.2009V15.1893H20.0714V12.0632C20.0714 7.18346 16.1479 3.22852 11.3069 3.22852Z" fill="#0066B3"/>
<path d="M3.86719 12.1058C3.86719 10.4874 6.84642 9.15929 10.6455 9.02156L11.4336 9.01172C13.0099 9.02156 14.4665 9.238 15.6597 9.59709L15.8378 9.65366C17.6068 10.2194 18.7463 11.1097 18.7463 12.1107C18.7463 13.2028 17.3921 14.1595 15.3474 14.7129C17.0041 14.1989 18.0802 13.3749 18.0802 12.4502C18.0802 11.609 17.1969 10.8539 15.7963 10.3374L15.6621 10.2882C14.4861 9.87502 12.9684 9.6266 11.3116 9.6266C11.2043 9.6266 11.0969 9.6266 10.992 9.63152L10.2331 9.6635C7.46374 9.84796 5.25311 10.7334 4.68459 11.8672C4.62847 11.9927 4.18439 13.097 6.30474 14.0907C7.12702 14.4744 7.7297 14.6539 8.07374 14.7326C8.0591 14.7892 8.0469 14.8433 8.03226 14.8999C7.78338 14.863 7.6809 14.8335 7.27342 14.7105C7.27342 14.7105 7.2417 14.7006 7.18558 14.6859C5.18967 14.13 3.87207 13.1831 3.87207 12.1083L3.86719 12.1058Z" fill="#BED73A"/>
<path d="M12.4951 12.5215C12.0315 12.2559 11.4435 12.4207 11.1799 12.888C10.9164 13.3553 11.0799 13.9481 11.5435 14.2112C12.0071 14.4769 12.5951 14.3121 12.8587 13.8448C13.1222 13.3774 12.9587 12.7847 12.4951 12.5191V12.5215Z" fill="#0066B3"/>
<path d="M15.4912 7.26242C15.4765 7.14436 15.4521 7.03614 15.4228 6.9353C15.4204 6.92054 15.4155 6.90578 15.4131 6.89349C15.4131 6.89349 15.4131 6.89103 15.4106 6.88857C15.3033 6.53931 15.1227 6.28598 14.8543 6.16054C14.1126 5.81129 12.8999 6.4975 11.6189 7.84533L11.492 7.98306C10.6478 8.90047 9.77913 10.0983 9.00565 11.4732L8.63233 12.1667C8.08333 13.2268 7.66121 14.2598 7.37817 15.192H7.94425C8.16385 14.4394 8.48593 13.6105 8.90317 12.7546L9.24721 12.0807C9.29601 11.9872 9.34725 11.8937 9.40093 11.8003C10.2061 10.3491 11.1284 9.10953 12.0044 8.2241L12.1069 8.12326C12.4924 7.74449 12.8682 7.43705 13.222 7.21077C13.5392 7.01154 14.0735 6.73608 14.5347 6.79019C14.5688 6.79511 14.5981 6.80248 14.6298 6.80986C15.4399 7.04844 15.74 9.07018 14.4371 11.6183C14.4371 11.6183 15.8254 9.33827 15.4936 7.26242H15.4912Z" fill="#0066B3"/>
<path d="M0.602679 16.8652C0.00731998 16.8652 0 17.2834 0 17.2834V20.6013H0.485559C0.963799 20.6013 0.971119 20.1979 0.971119 20.1905V16.8652H0.602679Z" fill="#0066B3"/>
<path d="M18.1216 20.5806H17.4043C17.4043 20.5806 15.9549 18.2883 15.7988 18.0448V20.1723C15.7988 20.1723 15.7914 20.5806 15.3156 20.5806H14.8496V16.8765H16.0647C16.0647 16.8765 17.4824 19.1909 17.6361 19.4443V17.2848C17.6361 17.2848 17.6434 16.8691 18.2363 16.8691H18.6023V20.1748C18.6023 20.1748 18.595 20.583 18.1192 20.583" fill="#0066B3"/>
<path d="M3.72062 16.8652H2.9325C2.88858 16.8652 2.55918 16.88 2.25662 17.2489L1.03662 18.7345L2.25662 20.22C2.55674 20.5865 2.88858 20.6013 2.9325 20.6037H3.72062L2.18586 18.7345L3.72062 16.8677V16.8652Z" fill="#0066B3"/>
<path d="M12.4779 16.8125C11.824 16.8125 11.3164 16.9847 10.9895 17.3388C10.6869 17.6512 10.5234 18.1062 10.5234 18.6719C10.5234 19.3704 10.7016 19.882 11.0529 20.2042C11.3652 20.4944 11.863 20.6445 12.5096 20.6445C13.1025 20.6445 13.5539 20.519 13.8638 20.2657C14.2469 19.9607 14.4396 19.4417 14.4396 18.7285C14.4396 18.0915 14.3006 17.6217 14.0346 17.3241C13.7296 16.9871 13.2099 16.815 12.4779 16.815V16.8125ZM13.2953 19.545C13.1489 19.7787 12.8902 19.8968 12.5316 19.8968C12.1046 19.8968 11.8142 19.7787 11.6605 19.545C11.5531 19.363 11.497 19.09 11.497 18.7113C11.497 18.3817 11.5678 18.1161 11.7068 17.9193C11.8776 17.6758 12.1363 17.5577 12.4706 17.5577C12.8048 17.5577 13.0635 17.661 13.2343 17.8799C13.3904 18.0841 13.4685 18.3497 13.4685 18.6965C13.4685 19.0654 13.4051 19.3557 13.2977 19.545H13.2953Z" fill="#0066B3"/>
<path d="M6.25852 18.2098C6.03648 17.9614 5.6534 17.8359 5.1166 17.8359C4.63592 17.8359 4.26505 17.9614 4.02593 18.2221C3.80389 18.4508 3.68433 18.7853 3.68433 19.201C3.68433 19.7126 3.81609 20.0889 4.07229 20.325C4.30165 20.5365 4.6652 20.6472 5.141 20.6472C5.57532 20.6472 5.90716 20.5537 6.13408 20.3693C6.41468 20.1454 6.5562 19.7642 6.5562 19.2428C6.5562 18.7755 6.45372 18.4311 6.25852 18.2122V18.2098ZM5.65828 19.7839C5.56068 19.9388 5.38988 20.0175 5.15076 20.0175C4.86528 20.0175 4.67496 19.9388 4.57004 19.7839C4.49928 19.6634 4.46025 19.4814 4.46025 19.2305C4.46025 19.0116 4.5066 18.8345 4.59932 18.7042C4.714 18.5418 4.8848 18.4631 5.10684 18.4631C5.32888 18.4631 5.49968 18.532 5.61436 18.6771C5.71684 18.8124 5.77052 18.9895 5.77052 19.2207C5.77052 19.4666 5.72904 19.6585 5.65584 19.7839H5.65828Z" fill="#0066B3"/>
<path d="M8.06385 16.877C7.72469 16.877 7.45385 16.9753 7.25133 17.1721C7.04882 17.3664 6.94878 17.6394 6.95122 17.9788V20.5835H7.64661C7.64661 20.5835 7.95649 20.5835 7.95649 20.2711V19.1766H9.70841H9.73525C9.95729 19.1766 10.0866 19.0659 10.0891 18.8372V18.8274V18.4904H7.95405V17.9813C7.95405 17.8558 7.99309 17.7599 8.06629 17.6861C8.14193 17.6099 8.24441 17.5681 8.38349 17.5681H10.05C10.2721 17.5681 10.3989 17.4574 10.4038 17.2262V17.2164V16.8794H8.06141L8.06385 16.877Z" fill="#0066B3"/>
<path d="M22.3474 18.6749C22.1473 18.4782 21.8716 18.3798 21.5349 18.3798H20.4223C20.2807 18.3798 20.1807 18.3405 20.1051 18.2642C20.0319 18.1904 19.9928 18.092 19.9928 17.9666C19.9928 17.8412 20.0319 17.7428 20.1051 17.6715C20.1807 17.5952 20.2807 17.5559 20.4223 17.5559H21.9839C22.3181 17.5559 22.3377 17.1992 22.3377 17.1992V16.8672H20.1002C19.761 16.8672 19.4902 16.9656 19.2877 17.1623C19.0851 17.3566 18.9875 17.6296 18.9875 17.9691C18.9875 18.3085 19.0876 18.579 19.2877 18.7782C19.4877 18.975 19.761 19.0709 20.1002 19.0709H21.2226C21.3568 19.0709 21.4568 19.1078 21.53 19.1816C21.6057 19.2579 21.6423 19.3538 21.6423 19.4792C21.6423 19.6047 21.6057 19.703 21.53 19.7817C21.4568 19.858 21.3568 19.8973 21.2226 19.8998H19.5414C19.1535 19.8998 19.1559 20.3204 19.1559 20.3204V20.5811H21.5398C21.8765 20.5811 22.1498 20.4852 22.3523 20.2884C22.5548 20.0941 22.6524 19.8211 22.6524 19.4817C22.6524 19.1423 22.5548 18.8717 22.3523 18.6749H22.3474Z" fill="#0066B3"/>
<path d="M23.404 21.2121C23.404 21.2982 19.5073 21.3695 14.703 21.3695C9.89863 21.3695 6.00195 21.2982 6.00195 21.2121C6.00195 21.126 9.89863 21.0547 14.703 21.0547C19.5073 21.0547 23.404 21.126 23.404 21.2121Z" fill="#BED73A"/>
</svg>
