<svg width="15" height="15" viewBox="0 0 15 15" fill="none" xmlns="http://www.w3.org/2000/svg">
<path fill-rule="evenodd" clip-rule="evenodd" d="M1 5.5C1 5.10218 1.15804 4.72064 1.43934 4.43934C1.72064 4.15804 2.10218 4 2.5 4H4V5H2.5C2.36739 5 2.24021 5.05268 2.14645 5.14645C2.05268 5.24021 2 5.36739 2 5.5V12.5C2 12.6326 2.05268 12.7598 2.14645 12.8536C2.24021 12.9473 2.36739 13 2.5 13H9.5C9.63261 13 9.75979 12.9473 9.85355 12.8536C9.94732 12.7598 10 12.6326 10 12.5V11H5.5C5.10218 11 4.72064 10.842 4.43934 10.5607C4.15804 10.2794 4 9.89782 4 9.5V2.5C4 2.10218 4.15804 1.72064 4.43934 1.43934C4.72064 1.15804 5.10218 1 5.5 1H12.5C12.8978 1 13.2794 1.15804 13.5607 1.43934C13.842 1.72064 14 2.10218 14 2.5V9.5C14 9.89782 13.842 10.2794 13.5607 10.5607C13.2794 10.842 12.8978 11 12.5 11H11V12.5C11 12.8978 10.842 13.2794 10.5607 13.5607C10.2794 13.842 9.89782 14 9.5 14H2.5C2.10218 14 1.72064 13.842 1.43934 13.5607C1.15804 13.2794 1 12.8978 1 12.5V5.5ZM5 9.5C5 9.63261 5.05268 9.75979 5.14645 9.85355C5.24021 9.94732 5.36739 10 5.5 10H12.5C12.6326 10 12.7598 9.94732 12.8536 9.85355C12.9473 9.75979 13 9.63261 13 9.5V2.5C13 2.36739 12.9473 2.24021 12.8536 2.14645C12.7598 2.05268 12.6326 2 12.5 2H5.5C5.36739 2 5.24021 2.05268 5.14645 2.14645C5.05268 2.24021 5 2.36739 5 2.5V9.5Z" fill="#707070"/>
</svg>
