<svg width="19" height="19" viewBox="0 0 19 19" fill="none" xmlns="http://www.w3.org/2000/svg">
<g clip-path="url(#clip0_50_6989)">
<path d="M13.25 2.75H16.25C16.4489 2.75 16.6397 2.82902 16.7803 2.96967C16.921 3.11032 17 3.30109 17 3.5V15.5C17 15.6989 16.921 15.8897 16.7803 16.0303C16.6397 16.171 16.4489 16.25 16.25 16.25H2.75C2.55109 16.25 2.36032 16.171 2.21967 16.0303C2.07902 15.8897 2 15.6989 2 15.5V3.5C2 3.30109 2.07902 3.11032 2.21967 2.96967C2.36032 2.82902 2.55109 2.75 2.75 2.75H5.75V1.25H7.25V2.75H11.75V1.25H13.25V2.75ZM15.5 8.75H3.5V14.75H15.5V8.75ZM11.75 4.25H7.25V5.75H5.75V4.25H3.5V7.25H15.5V4.25H13.25V5.75H11.75V4.25ZM5 10.25H6.5V11.75H5V10.25ZM8.75 10.25H10.25V11.75H8.75V10.25ZM12.5 10.25H14V11.75H12.5V10.25Z" fill="black"/>
</g>
<defs>
<clipPath id="clip0_50_6989">
<rect width="18" height="18" fill="white" transform="translate(0.5 0.5)"/>
</clipPath>
</defs>
</svg>
