<svg width="171" height="39" viewBox="0 0 171 39" fill="none" xmlns="http://www.w3.org/2000/svg">
<g clip-path="url(#clip0_124_18968)">
<path d="M55.0957 28.7707C55.4544 29.0277 55.7377 29.3483 55.9487 29.7354C56.1597 30.1194 56.2652 30.5337 56.2652 30.9752C56.2652 31.7765 55.9487 32.463 55.3188 33.0345C54.6888 33.606 53.9323 33.8903 53.0492 33.8903C52.166 33.8903 51.4246 33.603 50.7886 33.0345C50.1526 32.463 49.8362 31.7765 49.8362 30.9752C49.8362 30.5337 49.9416 30.1194 50.1587 29.7354C50.3727 29.3483 50.656 29.0277 51.0056 28.7707H49.375V27.5974H52.0063V26.0703H54.083V27.5974H56.7113V28.7707H55.0987H55.0957ZM53.1305 37.8123H59.1738V38.9856H52.4855C52.0756 38.9856 51.735 38.8617 51.4638 38.6137C51.1925 38.3657 51.0569 38.027 51.0569 37.5946V34.8489H53.1336V37.8123H53.1305ZM52.1871 29.7051C51.9309 30.0589 51.8013 30.4823 51.8013 30.9752C51.8013 31.4681 51.9309 31.8975 52.1871 32.2573C52.4433 32.6172 52.7297 32.7956 53.0492 32.7956C53.3687 32.7956 53.667 32.6142 53.9172 32.2573C54.1674 31.8975 54.294 31.4681 54.294 30.9752C54.294 30.4823 54.1674 30.0589 53.9172 29.7051C53.667 29.3483 53.3777 29.1729 53.0492 29.1729C52.7206 29.1729 52.4433 29.3513 52.1871 29.7051ZM57.7994 38.9856V26.2094H59.876V29.1578H61.9527V30.3462H59.876V38.9856H57.7994Z" fill="#0066B3"/>
<path d="M64.1041 26.3038H72.9625V29.11C72.9625 29.4608 72.9143 29.8418 72.8148 30.2531C72.7153 30.6644 72.5978 30.9637 72.4531 31.1482H74.4514V32.3215H69.5626V34.3748H72.9293V39.0014H70.8526V35.545H64.0559V34.3717H67.4859V32.3185H62.6875V31.1452H70.6386C70.7411 30.8791 70.8074 30.5676 70.8376 30.2198C70.8677 29.8691 70.8858 29.5153 70.8858 29.1554V27.4741H64.1041V26.3008V26.3038Z" fill="#0066B3"/>
<path d="M121.449 27.3113C122.146 27.9645 122.495 28.7537 122.495 29.679C122.495 30.6044 122.149 31.3936 121.449 32.0468C120.753 32.7 119.918 33.0266 118.942 33.0266C117.965 33.0266 117.148 32.7 116.452 32.0468C115.753 31.3936 115.406 30.6044 115.406 29.679C115.406 28.7537 115.753 27.9645 116.452 27.3113C117.148 26.6581 117.977 26.3315 118.942 26.3315C119.906 26.3315 120.753 26.6581 121.449 27.3113ZM117.914 28.1519C117.628 28.5723 117.483 29.0833 117.483 29.679C117.483 30.2748 117.628 30.7828 117.914 31.2061C118.2 31.6295 118.544 31.8381 118.945 31.8381C119.346 31.8381 119.704 31.6295 119.991 31.2061C120.277 30.7858 120.422 30.2748 120.422 29.679C120.422 29.0833 120.277 28.5723 119.991 28.1519C119.704 27.7316 119.355 27.5199 118.945 27.5199C118.535 27.5199 118.203 27.7316 117.914 28.1519ZM117.058 34.4781H119.135V37.8105H125.989V38.9989H118.505C118.095 38.9989 117.751 38.8749 117.474 38.6269C117.197 38.379 117.058 38.0403 117.058 37.6079V34.475V34.4781ZM123.897 26.2227H125.989V28.9231H128.062V30.1115H125.989V38.9989H123.897V26.2227Z" fill="#0066B3"/>
<path d="M129.273 26.64H136.085V27.8133H133.716V28.5692C133.716 29.7516 134.041 30.7223 134.692 31.4753C135.343 32.2313 136.088 32.6879 136.929 32.8421L135.913 33.7221C135.268 33.6707 134.608 33.4046 133.939 32.9268C133.267 32.449 132.845 31.9379 132.67 31.3906C132.507 31.9379 132.085 32.446 131.41 32.9177C130.732 33.3925 130.072 33.6586 129.427 33.7221L128.414 32.8421C129.264 32.6879 130.012 32.2282 130.66 31.4602C131.305 30.6951 131.627 29.7304 131.627 28.5692V27.8133H129.273V26.64ZM132.739 37.8105H139.542V38.9989H132.094C131.684 38.9989 131.344 38.8749 131.072 38.6269C130.798 38.379 130.666 38.0403 130.666 37.6079V34.723H132.742V37.8074L132.739 37.8105ZM139.792 26.2227V38.9989H137.716V30.3897H135.286V29.2013H137.716V26.2227H139.792Z" fill="#0066B3"/>
<path d="M148.313 39.0019V34.0638L147.638 34.6323C147.053 34.5506 146.48 34.2482 145.922 33.7221C145.365 33.1959 145.027 32.6667 144.916 32.1315C144.813 32.6667 144.479 33.1959 143.915 33.7221C143.351 34.2452 142.773 34.5506 142.179 34.6323L141.227 33.8309C142.004 33.6253 142.643 33.0961 143.14 32.2403C143.638 31.3876 143.885 30.3594 143.885 29.1559V27.8133H142.071V26.64H147.607V27.8133H145.929V29.1559C145.929 30.2778 146.155 31.2545 146.607 32.0861C147.056 32.9177 147.625 33.4681 148.313 33.7372V26.2227H150.266V29.6942H151.327V26.2227H153.28V38.9989H151.327V30.8675H150.266V38.9989H148.313V39.0019Z" fill="#0066B3"/>
<path d="M165.584 26.2266V28.927H167.66V30.1154H165.584V39.0028H163.507V32.6615C163.23 32.8067 162.901 32.9277 162.524 33.0244C162.145 33.1212 161.741 33.1696 161.31 33.1696H157.018C156.578 33.1696 156.228 33.0456 155.972 32.8006C155.716 32.5557 155.586 32.2261 155.586 31.8118V26.6439H161.906V27.8172H157.663V31.9842H161.43C161.849 31.9842 162.238 31.957 162.591 31.8995C162.943 31.8421 163.251 31.7665 163.507 31.6757V26.2296H165.584V26.2266ZM158.699 37.8144H165.364V39.0028H158.054C157.645 39.0028 157.304 38.8788 157.033 38.6308C156.761 38.3829 156.626 38.0442 156.626 37.6118V34.618H158.702V37.8113L158.699 37.8144Z" fill="#0066B3"/>
<path d="M85.2045 31.8598V32.9726H81.2771V34.8566H79.2004V32.9726H76.3672V31.8598H85.2014H85.2045ZM82.4797 26.9187C83.0856 27.4327 83.387 28.0557 83.387 28.7875C83.387 29.5193 83.0825 30.1392 82.4797 30.6472C81.8739 31.1552 81.1355 31.4123 80.2644 31.4123C79.3933 31.4123 78.6519 31.1583 78.04 30.6472C77.4281 30.1362 77.1237 29.5162 77.1237 28.7875C77.1237 28.0587 77.4281 27.4327 78.04 26.9187C78.6519 26.4046 79.3933 26.1445 80.2644 26.1445C81.1355 26.1445 81.8739 26.4016 82.4797 26.9187ZM80.2915 37.8049H87.1154V38.9933H79.6586C79.2486 38.9933 78.905 38.8694 78.6277 38.6244C78.3504 38.3764 78.2118 38.0378 78.2118 37.6053V35.4886H80.2885V37.8049H80.2915ZM79.4566 27.7049C79.2366 27.9952 79.1251 28.352 79.1251 28.7875C79.1251 29.2229 79.2366 29.5798 79.4566 29.867C79.6766 30.1543 79.9479 30.2995 80.2644 30.2995C80.5809 30.2995 80.8371 30.1543 81.0571 29.867C81.2771 29.5798 81.3886 29.2169 81.3886 28.7875C81.3886 28.3581 81.2771 27.9952 81.0571 27.7049C80.8371 27.4176 80.5718 27.2725 80.2644 27.2725C79.957 27.2725 79.6766 27.4146 79.4566 27.7049ZM87.1184 26.208V38.2827H85.0417V34.7628H82.5762V33.7286H85.0417V26.208H87.1184Z" fill="#0066B3"/>
<path d="M89.3985 27.8128V26.6243H96.3249V27.8128L93.9226 27.7976V29.0496C93.9226 30.2652 94.2482 31.3054 94.8992 32.1703C95.5502 33.0351 96.2977 33.5492 97.1387 33.7125L96.1229 34.6076C95.4568 34.5562 94.7877 34.2689 94.1216 33.7427C93.4555 33.2166 93.0335 32.6662 92.8587 32.0886C92.714 32.6662 92.3071 33.2135 91.635 33.7337C90.9628 34.2538 90.2937 34.5441 89.6246 34.6076L88.5938 33.7125C89.4467 33.5492 90.1942 33.0351 90.8392 32.1703C91.4873 31.3054 91.8098 30.2652 91.8098 29.0496V27.7976L89.3925 27.8128H89.3985ZM97.5245 26.207H99.5861V29.4034L101.666 29.3882V30.5767H99.5861V38.9923H97.5245V26.207Z" fill="#0066B3"/>
<path d="M106.908 29.3438V27.6594H102.891V26.4861H108.985V30.5171H105.106V32.1984H109.754V33.3717H104.458C104.018 33.3717 103.668 33.2477 103.412 33.0027C103.156 32.7548 103.026 32.4252 103.026 32.0139V29.3438H106.905H106.908ZM111.279 35.6608H103.985V34.4724H113.359V38.9962H111.282V35.6608H111.279ZM113.356 26.2109V33.5924H111.279V31.6148H109.401V30.4415H111.279V29.1139H109.401V27.9406H111.279V26.2109H113.356Z" fill="#0066B3"/>
<path d="M40.5872 27.5287V21.6652C40.5872 16.3944 38.4623 11.6347 35.0202 8.18136C31.5781 4.728 26.834 2.59611 21.5805 2.59611C16.3269 2.59611 11.5828 4.728 8.14069 8.18136C4.70162 11.6347 2.5767 16.3944 2.5767 21.6652V27.5287H0.5V21.6652C0.5 9.98364 9.93708 0.515625 21.5805 0.515625C33.2238 0.515625 42.6609 9.98364 42.6609 21.6652V27.5287H40.5872Z" fill="#0066B3"/>
<path d="M21.5815 5.33594C12.5574 5.33594 5.24219 12.6751 5.24219 21.7288V27.5288H6.21272V21.9798C6.21272 13.3222 13.0939 6.30663 21.5815 6.30663C30.0722 6.30663 36.9503 13.3222 36.9503 21.9798V27.5288H37.9178V21.7288C37.9178 12.6751 30.6026 5.33594 21.5785 5.33594H21.5815Z" fill="#0066B3"/>
<path d="M7.71395 21.808C7.71395 18.8052 13.2689 16.3407 20.349 16.0837L21.8168 16.0625C24.7555 16.0837 27.4742 16.4828 29.6926 17.1481L30.0242 17.2509C33.3216 18.3033 35.4495 19.9543 35.4495 21.811C35.4495 23.8341 32.9237 25.6122 29.1109 26.6373C32.2003 25.6847 34.2047 24.1576 34.2047 22.437C34.2047 20.8766 32.556 19.4766 29.9458 18.5149L29.6956 18.4242C27.5014 17.6592 24.6712 17.1995 21.5817 17.1995C21.3828 17.1995 21.1839 17.2025 20.9849 17.2056L19.5683 17.266C14.4022 17.6077 10.285 19.2498 9.22099 21.3575C9.1155 21.5873 8.28964 23.6405 12.2441 25.4821C13.7753 26.1958 14.9025 26.5284 15.5415 26.6766C15.5144 26.7794 15.4903 26.8822 15.4631 26.985C14.999 26.9155 14.8091 26.858 14.0495 26.6343C14.0495 26.6343 13.9893 26.6191 13.8868 26.5889C10.1644 25.5577 7.71094 23.8008 7.71094 21.805L7.71395 21.808Z" fill="#BED73A"/>
<path d="M23.7934 22.5781C22.9284 22.0882 21.8313 22.3906 21.343 23.2585C20.8547 24.1234 21.1561 25.2241 22.0211 25.717C22.8832 26.2099 23.9833 25.9045 24.4716 25.0366C24.9629 24.1687 24.6585 23.071 23.7934 22.5781Z" fill="#0066B3"/>
<path d="M29.3825 12.8208C29.3523 12.6031 29.3101 12.4035 29.2559 12.213C29.2498 12.1858 29.2438 12.1586 29.2378 12.1344C29.2378 12.1344 29.2378 12.1313 29.2317 12.1253C29.0328 11.4751 28.6952 11.0095 28.1979 10.7736C26.8145 10.1234 24.5539 11.3995 22.1668 13.9004L21.9286 14.1544C20.3523 15.8569 18.7367 18.0825 17.293 20.6317L16.5937 21.9169C15.572 23.8855 14.7853 25.7996 14.2578 27.5324H15.3158C15.7287 26.1323 16.3255 24.5991 17.1031 23.0085L17.7451 21.7566C17.8385 21.5812 17.932 21.4088 18.0314 21.2335C19.5324 18.5421 21.2505 16.2409 22.8871 14.5989L23.077 14.4114C23.7974 13.7068 24.4966 13.1383 25.1537 12.718C25.7475 12.3491 26.7421 11.838 27.5981 11.9378C27.6584 11.9469 27.7187 11.962 27.7759 11.9741C29.286 12.4186 29.8466 16.1653 27.4173 20.8978C27.4173 20.8978 30.0034 16.6673 29.3855 12.8178L29.3825 12.8208Z" fill="#0066B3"/>
<path d="M1.62425 30.6406C0.512056 30.6406 0.5 31.4178 0.5 31.4178V37.5746H1.40724C2.29639 37.5746 2.31146 36.8276 2.31146 36.8125V30.6436H1.62425V30.6406Z" fill="#0066B3"/>
<path d="M34.285 37.5392H32.9497C32.9497 37.5392 30.2491 33.2875 29.9568 32.8339V36.7801C29.9568 36.7953 29.9447 37.5392 29.0586 37.5392H28.1875V30.6627H30.4541C30.4541 30.6627 33.0974 34.9597 33.3868 35.4254V31.4187C33.3868 31.4187 33.4019 30.6445 34.505 30.6445H35.1862V36.7771C35.1862 36.7922 35.1711 37.5361 34.288 37.5361" fill="#0066B3"/>
<path d="M7.43607 30.6406H5.9652C5.88382 30.6406 5.26593 30.6678 4.70532 31.3513L2.42969 34.1061L4.70532 36.8639C5.26593 37.5443 5.88382 37.5715 5.9652 37.5746H7.43607L4.57571 34.1091L7.43607 30.6436V30.6406Z" fill="#0066B3"/>
<path d="M23.7612 30.543C22.5405 30.543 21.5971 30.8635 20.9883 31.5197C20.4216 32.1003 20.1172 32.947 20.1172 33.9933C20.1172 35.2906 20.4517 36.2401 21.1058 36.8358C21.6875 37.3741 22.6159 37.6523 23.8215 37.6523C24.9246 37.6523 25.7656 37.4195 26.3473 36.9507C27.0586 36.3853 27.4203 35.4236 27.4203 34.0961C27.4203 32.9168 27.1581 32.0429 26.6668 31.4895C26.1001 30.8635 25.1266 30.543 23.7642 30.543H23.7612ZM25.2833 35.6141C25.009 36.0496 24.5298 36.2673 23.8607 36.2673C23.0619 36.2673 22.5254 36.0496 22.2361 35.6141C22.0341 35.2785 21.9317 34.7674 21.9317 34.0689C21.9317 33.4581 22.0643 32.9621 22.3235 32.5993C22.643 32.1457 23.1222 31.9279 23.7461 31.9279C24.3701 31.9279 24.8493 32.1185 25.1688 32.5267C25.4611 32.9047 25.6058 33.4006 25.6058 34.0417C25.6058 34.7251 25.4883 35.2664 25.2863 35.6172L25.2833 35.6141Z" fill="#0066B3"/>
<path d="M12.1686 33.133C11.7527 32.6734 11.0383 32.4375 10.0407 32.4375C9.14549 32.4375 8.45226 32.6734 8.00617 33.1542C7.59023 33.5806 7.36719 34.2005 7.36719 34.9686C7.36719 35.9181 7.61133 36.6136 8.09057 37.0521C8.51555 37.4452 9.19673 37.6508 10.0799 37.6508C10.8906 37.6508 11.5055 37.4784 11.9335 37.1367C12.455 36.7194 12.7202 36.0148 12.7202 35.0442C12.7202 34.1793 12.5303 33.5382 12.1686 33.133ZM11.0504 36.0511C10.8665 36.3414 10.5501 36.4836 10.107 36.4836C9.57651 36.4836 9.22085 36.3384 9.02794 36.0511C8.89532 35.8274 8.826 35.4887 8.826 35.023C8.826 34.6178 8.91341 34.2882 9.08823 34.0462C9.30222 33.7469 9.6187 33.6017 10.0346 33.6017C10.4506 33.6017 10.7671 33.7287 10.9811 33.9979C11.174 34.2489 11.2704 34.5785 11.2704 35.0048C11.2704 35.4584 11.1921 35.8183 11.0564 36.0511H11.0504Z" fill="#0066B3"/>
<path d="M15.5346 30.6602C14.9047 30.6602 14.3953 30.8416 14.0216 31.2075C13.6448 31.5704 13.4609 32.0754 13.4609 32.7013V37.5336H14.76C14.76 37.5336 15.3357 37.5306 15.3357 36.956V34.927H18.603H18.6542C19.0701 34.93 19.3082 34.7213 19.3143 34.295V34.2768V33.6509H15.3357V32.7074C15.3357 32.4745 15.408 32.2931 15.5437 32.16C15.6823 32.0179 15.8722 31.9423 16.1344 31.9423H19.2419C19.6579 31.9423 19.893 31.7367 19.902 31.3103V31.2922V30.6662H15.5316L15.5346 30.6602Z" fill="#0066B3"/>
<path d="M42.1647 33.999C41.791 33.6331 41.2756 33.4547 40.6486 33.4547H38.5719C38.3097 33.4547 38.1198 33.3821 37.9812 33.243C37.8455 33.1069 37.7732 32.9225 37.7732 32.6926C37.7732 32.4598 37.8455 32.2784 37.9812 32.1453C38.1228 32.0032 38.3097 31.9276 38.5719 31.9276H41.4835C42.1044 31.9276 42.1436 31.2653 42.1436 31.2653V30.6484H37.9721C37.3422 30.6484 36.8328 30.8299 36.4591 31.1958C36.0823 31.5586 35.8984 32.0637 35.8984 32.6926C35.8984 33.3216 36.0823 33.8266 36.4591 34.1925C36.8328 34.5554 37.3422 34.7368 37.9721 34.7368H40.0639C40.3141 34.7368 40.5009 34.8064 40.6366 34.9455C40.7752 35.0846 40.8445 35.266 40.8445 35.4989C40.8445 35.7317 40.7752 35.9162 40.6366 36.0583C40.4979 36.2004 40.3141 36.276 40.0639 36.276H36.9293C36.2059 36.276 36.2089 37.0562 36.2089 37.0562V37.54H40.6516C41.2786 37.54 41.791 37.3647 42.1647 36.9957C42.5415 36.6329 42.7253 36.1309 42.7253 35.4989C42.7253 34.8699 42.5415 34.3649 42.1647 34.002V33.999Z" fill="#0066B3"/>
<path d="M44.1371 38.7083C44.1371 38.8685 36.8731 39.0016 27.9123 39.0016C18.9514 39.0016 11.6875 38.8716 11.6875 38.7083C11.6875 38.545 18.9514 38.418 27.9123 38.418C36.8731 38.418 44.1371 38.548 44.1371 38.7083Z" fill="#BED73A"/>
<path d="M52.4976 0.261719C49.4142 0.261719 49.375 2.4178 49.375 2.4178V19.5032H51.8918C54.3633 19.5032 54.4025 17.4257 54.4025 17.3864V0.261719H52.5006H52.4976Z" fill="#0066B3"/>
<path d="M143.154 19.4078H139.446C139.446 19.4078 131.95 7.60528 131.14 6.35034V17.3061C131.14 17.3485 131.103 19.4108 128.644 19.4108H126.227V0.323585H132.514C132.514 0.323585 139.847 12.2471 140.652 13.5474V2.42524C140.652 2.42524 140.694 0.28125 143.756 0.28125H145.649V17.3031C145.649 17.3455 145.61 19.4078 143.154 19.4078Z" fill="#0066B3"/>
<path d="M68.6341 0.261719H64.55C64.327 0.261719 62.6119 0.340342 61.0537 2.23334L54.7422 9.88396L61.0537 17.5346C62.615 19.4245 64.327 19.5032 64.55 19.5062H68.6341L60.698 9.88396L68.6341 0.261719Z" fill="#0066B3"/>
<path d="M113.957 0C110.569 0 107.947 0.889044 106.256 2.71249C104.686 4.32729 103.836 6.67085 103.836 9.5799C103.836 13.1784 104.764 15.8123 106.579 17.4694C108.191 18.9632 110.768 19.7344 114.114 19.7344C117.179 19.7344 119.512 19.0842 121.128 17.79C123.105 16.2175 124.109 13.5504 124.109 9.86718C124.109 6.59223 123.385 4.17004 122.017 2.62782C120.444 0.889044 117.743 0 113.957 0ZM118.186 14.0765C117.423 15.2831 116.091 15.8909 114.235 15.8909C112.022 15.8909 110.53 15.2831 109.725 14.0765C109.162 13.1452 108.878 11.7299 108.878 9.78553C108.878 8.09211 109.243 6.71621 109.967 5.70319C110.853 4.44824 112.185 3.84043 113.918 3.84043C115.651 3.84043 116.983 4.36962 117.866 5.50058C118.674 6.55292 119.075 7.9258 119.075 9.70691C119.075 11.606 118.753 13.1028 118.189 14.0796L118.186 14.0765Z" fill="#0066B3"/>
<path d="M81.7579 7.19189C80.6035 5.91578 78.6263 5.26562 75.8473 5.26562C73.3637 5.26562 71.4438 5.9188 70.202 7.25237C69.0506 8.43473 68.4297 10.1584 68.4297 12.2903C68.4297 14.9302 69.1079 16.8595 70.4401 18.0751C71.6216 19.1698 73.5114 19.7353 75.9649 19.7353C78.2134 19.7353 79.9254 19.2575 81.1099 18.308C82.5597 17.1528 83.2951 15.1963 83.2951 12.4989C83.2951 10.0949 82.7646 8.31982 81.7579 7.19189ZM78.6565 15.2961C78.1501 16.0974 77.267 16.4996 76.0342 16.4996C74.5633 16.4996 73.5717 16.0974 73.0352 15.2961C72.6645 14.6762 72.4716 13.7357 72.4716 12.4445C72.4716 11.3196 72.7157 10.4064 73.1949 9.73504C73.7857 8.90042 74.6688 8.49824 75.8172 8.49824C76.9656 8.49824 77.8517 8.84902 78.4394 9.59896C78.9759 10.2975 79.2412 11.2107 79.2412 12.3931C79.2412 13.6541 79.0272 14.649 78.6504 15.2961H78.6565Z" fill="#0066B3"/>
<path d="M91.1036 0.324232C89.3495 0.321208 87.9419 0.826209 86.902 1.84528C85.8592 2.84924 85.3438 4.24933 85.3438 5.99415V19.4054H88.9486C88.9486 19.4054 90.5491 19.3963 90.5491 17.7997V12.163H99.6154L99.7541 12.157C100.908 12.1691 101.566 11.5885 101.587 10.4031L101.593 10.3517V8.6129H90.5521V5.99113C90.5521 5.34703 90.754 4.84505 91.1308 4.4731C91.5196 4.07697 92.0471 3.86529 92.7734 3.86529H101.4C102.551 3.86831 103.211 3.29376 103.229 2.10837L103.235 2.05696V0.324232H91.1097H91.1036Z" fill="#0066B3"/>
<path d="M165.024 9.58901C163.984 8.57598 162.559 8.07401 160.816 8.07401H155.053C154.324 8.07401 153.8 7.87442 153.414 7.48433C153.04 7.10936 152.835 6.59529 152.835 5.95421C152.835 5.31011 153.037 4.80511 153.414 4.43013C153.803 4.034 154.327 3.82837 155.057 3.82837H163.14C164.864 3.82837 164.973 1.98678 164.973 1.98678V0.281263H153.393C151.642 0.27824 150.231 0.783241 149.188 1.80231C148.145 2.80627 147.63 4.20636 147.633 5.95421C147.633 7.70206 148.145 9.09913 149.188 10.1152C150.228 11.1252 151.639 11.6302 153.393 11.6272H159.195C159.894 11.6272 160.406 11.8207 160.786 12.2017C161.175 12.5918 161.365 13.0908 161.365 13.7379C161.365 14.385 161.178 14.89 160.786 15.2922C160.403 15.6883 159.888 15.8909 159.195 15.894H150.496C148.489 15.894 148.495 18.0621 148.495 18.0621V19.4048H160.825C162.565 19.4048 163.984 18.9149 165.027 17.8928C166.07 16.8888 166.585 15.4918 166.579 13.7379C166.582 11.9931 166.07 10.593 165.024 9.58599V9.58901Z" fill="#0066B3"/>
<path d="M170.501 22.6581C170.501 23.1056 150.34 23.4685 125.468 23.4685C100.596 23.4685 80.4375 23.1056 80.4375 22.6581C80.4375 22.2105 100.599 21.8477 125.468 21.8477C150.337 21.8477 170.501 22.2105 170.501 22.6581Z" fill="#BED73A"/>
</g>
<defs>
<clipPath id="clip0_124_18968">
<rect width="170" height="39" fill="white" transform="translate(0.5)"/>
</clipPath>
</defs>
</svg>
