<svg width="19" height="19" viewBox="0 0 19 19" fill="none" xmlns="http://www.w3.org/2000/svg">
<g clip-path="url(#clip0_50_6987)">
<path d="M6.5 3.5H16.25V5H6.5V3.5ZM3.875 5.375C3.57663 5.375 3.29048 5.25647 3.0795 5.0455C2.86853 4.83452 2.75 4.54837 2.75 4.25C2.75 3.95163 2.86853 3.66548 3.0795 3.4545C3.29048 3.24353 3.57663 3.125 3.875 3.125C4.17337 3.125 4.45952 3.24353 4.6705 3.4545C4.88147 3.66548 5 3.95163 5 4.25C5 4.54837 4.88147 4.83452 4.6705 5.0455C4.45952 5.25647 4.17337 5.375 3.875 5.375ZM3.875 10.625C3.57663 10.625 3.29048 10.5065 3.0795 10.2955C2.86853 10.0845 2.75 9.79837 2.75 9.5C2.75 9.20163 2.86853 8.91548 3.0795 8.7045C3.29048 8.49353 3.57663 8.375 3.875 8.375C4.17337 8.375 4.45952 8.49353 4.6705 8.7045C4.88147 8.91548 5 9.20163 5 9.5C5 9.79837 4.88147 10.0845 4.6705 10.2955C4.45952 10.5065 4.17337 10.625 3.875 10.625ZM3.875 15.8C3.57663 15.8 3.29048 15.6815 3.0795 15.4705C2.86853 15.2595 2.75 14.9734 2.75 14.675C2.75 14.3766 2.86853 14.0905 3.0795 13.8795C3.29048 13.6685 3.57663 13.55 3.875 13.55C4.17337 13.55 4.45952 13.6685 4.6705 13.8795C4.88147 14.0905 5 14.3766 5 14.675C5 14.9734 4.88147 15.2595 4.6705 15.4705C4.45952 15.6815 4.17337 15.8 3.875 15.8ZM6.5 8.75H16.25V10.25H6.5V8.75ZM6.5 14H16.25V15.5H6.5V14Z" fill="black"/>
</g>
<defs>
<clipPath id="clip0_50_6987">
<rect width="18" height="18" fill="white" transform="translate(0.5 0.5)"/>
</clipPath>
</defs>
</svg>
