<svg width="256" height="40" viewBox="0 0 256 40" fill="none" xmlns="http://www.w3.org/2000/svg">
<g clip-path="url(#clip0_71_6512)">
<path d="M40.8325 28.0787V21.9829C40.8325 16.5038 38.6685 11.556 35.1608 7.96964C31.6531 4.37856 26.8201 2.16319 21.4727 2.16319C16.1208 2.16319 11.2878 4.37856 7.78468 7.96964C4.28157 11.5607 2.11762 16.5085 2.11762 21.9829V28.0787H0V21.9829C0 9.84345 9.615 0 21.4727 0C33.3305 0 42.9455 9.84345 42.9455 21.9829V28.0787H40.8325Z" fill="#0066B3"/>
<path d="M21.4728 5.00977C12.2794 5.00977 4.82837 12.6378 4.82837 22.0496V28.079H5.81536V22.3153C5.81536 13.3162 12.8262 6.02495 21.4728 6.02495C30.1193 6.02495 37.1255 13.3162 37.1301 22.3153V28.079H38.1171V22.0496C38.1171 12.6378 30.6661 5.00977 21.4728 5.00977Z" fill="#0066B3"/>
<path d="M7.34448 22.1299C7.34448 19.0084 13.0023 16.4467 20.217 16.1811L21.7137 16.1621C24.7071 16.1811 27.4734 16.5985 29.7393 17.2911L30.0776 17.4003C33.4371 18.4913 35.601 20.2086 35.601 22.1393C35.601 24.2456 33.0293 26.091 29.1462 27.1583C32.2925 26.1669 34.336 24.5777 34.336 22.794C34.336 21.1716 32.6586 19.7152 29.9988 18.719L29.744 18.6242C27.5105 17.8272 24.6283 17.3481 21.482 17.3481C21.2781 17.3481 21.0742 17.3481 20.875 17.3576L19.4339 17.4192C14.1746 17.775 9.97645 19.4828 8.89678 21.6697C8.79021 21.9116 7.94687 24.0416 11.9736 25.9581C13.5352 26.6982 14.6797 27.0445 15.333 27.1963C15.3052 27.3054 15.2821 27.4097 15.2543 27.5188C14.7816 27.4477 14.587 27.3908 13.8132 27.1536C13.8132 27.1536 13.7529 27.1346 13.6464 27.1061C9.85597 26.034 7.35375 24.2077 7.35375 22.1346L7.34448 22.1299Z" fill="#BED73A"/>
<path d="M23.7294 22.9324C22.849 22.4201 21.7322 22.7379 21.2318 23.6393C20.7314 24.5406 21.0418 25.6839 21.9222 26.1914C22.8026 26.7038 23.9194 26.3859 24.4198 25.4846C24.9203 24.5833 24.6098 23.44 23.7294 22.9277V22.9324Z" fill="#0066B3"/>
<path d="M29.4196 12.7895C29.3918 12.5618 29.3455 12.3531 29.2899 12.1586C29.2852 12.1301 29.276 12.1016 29.2713 12.0779C29.2713 12.0779 29.2713 12.0732 29.2667 12.0684C29.0628 11.3948 28.7199 10.9062 28.2102 10.6643C26.8016 9.99064 24.4986 11.3142 22.0659 13.9138L21.8249 14.1794C20.2217 15.9489 18.572 18.2591 17.1032 20.9109L16.3942 22.2487C15.3516 24.2933 14.55 26.2857 14.0125 28.0836H15.0875C15.5045 26.632 16.1162 25.0333 16.9085 23.3825L17.5619 22.0827C17.6546 21.9024 17.7519 21.7221 17.8538 21.5419C19.383 18.743 21.1345 16.3521 22.798 14.6443L22.9926 14.4498C23.7248 13.7193 24.4384 13.1263 25.1103 12.6899C25.7126 12.3056 26.7274 11.7743 27.6032 11.8787C27.6681 11.8882 27.7237 11.9024 27.7839 11.9166C29.3223 12.3768 29.8923 16.2762 27.4179 21.1908C27.4179 21.1908 30.0545 16.7933 29.4243 12.7895H29.4196Z" fill="#0066B3"/>
<path d="M1.14453 31.3086C0.0139012 31.3086 0 32.115 0 32.115V38.5145H0.922113C1.83033 38.5145 1.84423 37.7365 1.84423 37.7223V31.3086H1.14453Z" fill="#0066B3"/>
<path d="M34.4148 38.4768H33.0524C33.0524 38.4768 30.3 34.0556 30.0035 33.5859V37.6893C30.0035 37.6893 29.9895 38.4768 29.086 38.4768H28.2009V31.3326H30.5085C30.5085 31.3326 33.2007 35.7965 33.4927 36.2852V32.1201C33.4927 32.1201 33.5066 31.3184 34.6326 31.3184H35.3276V37.6941C35.3276 37.6941 35.3137 38.4816 34.4101 38.4816" fill="#0066B3"/>
<path d="M7.06647 31.3086H5.56977C5.48637 31.3086 4.86081 31.3371 4.28623 32.0486L1.96936 34.9139L4.28623 37.7792C4.85618 38.486 5.48637 38.5145 5.56977 38.5192H7.06647L4.15185 34.9139L7.06647 31.3133V31.3086Z" fill="#0066B3"/>
<path d="M23.697 31.209C22.4551 31.209 21.4913 31.5411 20.8704 32.2242C20.2958 32.8266 19.9854 33.7042 19.9854 34.7953C19.9854 36.1426 20.3236 37.1293 20.9909 37.7507C21.584 38.3105 22.5293 38.5999 23.7572 38.5999C24.8832 38.5999 25.7405 38.3579 26.3289 37.8693C27.0564 37.2811 27.4225 36.2801 27.4225 34.9044C27.4225 33.6758 27.1584 32.7697 26.6533 32.1957C26.0741 31.5458 25.0871 31.2137 23.697 31.2137V31.209ZM25.2493 36.4794C24.9713 36.93 24.4801 37.1578 23.7989 37.1578C22.988 37.1578 22.4366 36.93 22.1447 36.4794C21.9408 36.1283 21.8342 35.6018 21.8342 34.8712C21.8342 34.2356 21.9686 33.7232 22.2327 33.3437C22.5571 32.8741 23.0483 32.6464 23.6831 32.6464C24.3179 32.6464 24.8091 32.8456 25.1334 33.2678C25.43 33.6615 25.5783 34.1739 25.5783 34.8428C25.5783 35.5543 25.4578 36.1141 25.2539 36.4794H25.2493Z" fill="#0066B3"/>
<path d="M11.8855 33.9027C11.4639 33.4236 10.7364 33.1816 9.71695 33.1816C8.8041 33.1816 8.09978 33.4236 7.64567 33.9264C7.224 34.3676 6.99695 35.0128 6.99695 35.8145C6.99695 36.8012 7.24717 37.527 7.73371 37.9824C8.16928 38.3904 8.85971 38.6038 9.76329 38.6038C10.5881 38.6038 11.2183 38.4236 11.6492 38.0678C12.1821 37.6361 12.4509 36.9008 12.4509 35.8951C12.4509 34.9938 12.2562 34.3297 11.8855 33.9075V33.9027ZM10.7456 36.9388C10.5603 37.2376 10.2359 37.3894 9.78182 37.3894C9.23968 37.3894 8.87824 37.2376 8.67899 36.9388C8.54462 36.7063 8.47048 36.3553 8.47048 35.8714C8.47048 35.4492 8.55852 35.1076 8.7346 34.8562C8.95238 34.5431 9.27675 34.3913 9.69842 34.3913C10.1201 34.3913 10.4444 34.5241 10.6622 34.804C10.8568 35.0649 10.9588 35.4065 10.9588 35.8524C10.9588 36.3268 10.88 36.6968 10.741 36.9388H10.7456Z" fill="#0066B3"/>
<path d="M15.3145 31.332C14.6704 31.332 14.156 31.5218 13.7714 31.9013C13.3868 32.2761 13.1969 32.8026 13.2015 33.4573V38.481H14.5221C14.5221 38.481 15.1106 38.481 15.1106 37.8785V35.7675H18.4376H18.4886C18.9103 35.7675 19.1559 35.554 19.1605 35.1129V35.0939V34.444H15.106V33.462C15.106 33.2201 15.1801 33.0351 15.3191 32.8927C15.4628 32.7457 15.6574 32.665 15.9215 32.665H19.0863C19.508 32.665 19.749 32.4516 19.7582 32.0057V31.9867V31.3368H15.3099L15.3145 31.332Z" fill="#0066B3"/>
<path d="M42.4405 34.7992C42.0605 34.4197 41.5369 34.23 40.8974 34.23H38.7845C38.5157 34.23 38.3257 34.1541 38.1821 34.007C38.0431 33.8647 37.9689 33.6749 37.9689 33.433C37.9689 33.1911 38.0431 33.0013 38.1821 32.8637C38.3257 32.7167 38.5157 32.6408 38.7845 32.6408H41.75C42.3849 32.6408 42.4219 31.9529 42.4219 31.9529V31.3125H38.1728C37.5287 31.3125 37.0144 31.5023 36.6298 31.8818C36.2452 32.2565 36.0598 32.7831 36.0598 33.4377C36.0598 34.0924 36.2498 34.6142 36.6298 34.9985C37.0097 35.378 37.5287 35.563 38.1728 35.563H40.3043C40.5592 35.563 40.7492 35.6341 40.8882 35.7764C41.0318 35.9235 41.1013 36.1085 41.1013 36.3504C41.1013 36.5924 41.0318 36.7821 40.8882 36.9339C40.7492 37.081 40.5592 37.1569 40.3043 37.1616H37.1117C36.3749 37.1616 36.3795 37.9728 36.3795 37.9728V38.4757H40.9067C41.5462 38.4757 42.0651 38.2907 42.4497 37.9112C42.8343 37.5364 43.0197 37.0098 43.0197 36.3552C43.0197 35.7005 42.8343 35.1787 42.4497 34.7992H42.4405Z" fill="#0066B3"/>
<path d="M44.4468 39.6962C44.4468 39.8622 37.0468 39.9998 27.9229 39.9998C18.7991 39.9998 11.399 39.8622 11.399 39.6962C11.399 39.5301 18.7991 39.3926 27.9229 39.3926C37.0468 39.3926 44.4468 39.5301 44.4468 39.6962Z" fill="#BED73A"/>
<path d="M59.3999 0.544922C54.261 0.544922 54.1962 4.20716 54.1962 4.20716V33.2537H58.3897C62.5091 33.2537 62.574 29.7242 62.574 29.6531V0.544922H59.4045H59.3999Z" fill="#0066B3"/>
<path d="M210.441 33.0971H204.264C204.264 33.0971 191.772 13.0307 190.428 10.896V29.5202C190.428 29.5914 190.368 33.0971 186.267 33.0971H182.235V0.654026H192.712C192.712 0.654026 204.932 20.9244 206.271 23.135V4.22613C206.271 4.22613 206.34 0.578125 211.447 0.578125H214.597V29.5155C214.597 29.5867 214.533 33.0924 210.441 33.0924" fill="#0066B3"/>
<path d="M86.2802 0.544922H79.4778C79.1071 0.544922 76.2527 0.677749 73.6532 3.89407L63.1346 16.9017L73.6532 29.9092C76.2527 33.1208 79.1071 33.2536 79.4778 33.2584H86.2802L73.0601 16.9017L86.2802 0.544922Z" fill="#0066B3"/>
<path d="M161.791 0.0996094C156.148 0.0996094 151.778 1.61289 148.961 4.71536C146.343 7.45729 144.929 11.4469 144.929 16.3899C144.929 22.5095 146.472 26.9877 149.498 29.8055C152.186 32.3434 156.477 33.6527 162.051 33.6527C167.157 33.6527 171.045 32.5474 173.733 30.3463C177.027 27.6708 178.7 23.1357 178.7 16.8785C178.7 11.3093 177.495 7.19638 175.215 4.57304C172.593 1.61764 168.098 0.104353 161.787 0.104353L161.791 0.0996094ZM168.835 24.0322C167.56 26.0863 165.346 27.1157 162.25 27.1157C158.562 27.1157 156.073 26.0863 154.734 24.0322C153.798 22.4478 153.321 20.0427 153.321 16.7362C153.321 13.8567 153.928 11.5133 155.133 9.796C156.611 7.66128 158.831 6.63187 161.713 6.63187C164.595 6.63187 166.819 7.5332 168.293 9.45445C169.636 11.2429 170.308 13.5768 170.308 16.6034C170.308 19.834 169.771 22.3766 168.83 24.037L168.835 24.0322Z" fill="#0066B3"/>
<path d="M108.151 12.3249C106.228 10.1569 102.934 9.04688 98.3047 9.04688C94.1668 9.04688 90.9649 10.1569 88.8982 12.4245C86.9799 14.4359 85.9465 17.3628 85.9465 20.9871C85.9465 25.4748 87.0772 28.7575 89.2967 30.8258C91.2661 32.6854 94.4124 33.6484 98.4993 33.6484C102.243 33.6484 105.098 32.8372 107.067 31.2243C109.481 29.2603 110.709 25.9349 110.709 21.3476C110.709 17.2632 109.824 14.2461 108.151 12.3249ZM102.985 26.101C102.141 27.4672 100.668 28.1455 98.6152 28.1455C96.1639 28.1455 94.5143 27.4624 93.62 26.101C93.0037 25.0478 92.6794 23.4492 92.6794 21.2528C92.6794 19.341 93.0871 17.785 93.8841 16.6465C94.8665 15.2281 96.34 14.545 98.2537 14.545C100.167 14.545 101.646 15.1427 102.623 16.4188C103.518 17.6095 103.963 19.156 103.963 21.1674C103.963 23.3116 103.606 25.0004 102.98 26.101H102.985Z" fill="#0066B3"/>
<path d="M123.725 0.654317C120.806 0.649573 118.457 1.50346 116.724 3.23971C114.986 4.94749 114.124 7.32889 114.129 10.2938V33.0974H120.134C120.134 33.0974 122.799 33.0832 122.799 30.3697V20.7871H137.905L138.136 20.7777C140.059 20.7966 141.158 19.8099 141.19 17.7985L141.199 17.7131V14.7577H122.803V10.3033C122.803 9.20745 123.142 8.35356 123.767 7.72263C124.411 7.049 125.292 6.69322 126.501 6.69322H140.87C142.789 6.69796 143.887 5.72073 143.919 3.7046L143.928 3.61447V0.654317H123.725Z" fill="#0066B3"/>
<path d="M246.876 16.4036C245.143 14.6816 242.771 13.8277 239.865 13.8277H230.264C229.046 13.8277 228.174 13.4909 227.53 12.822C226.905 12.1863 226.566 11.3087 226.566 10.2224C226.566 9.12653 226.905 8.2679 227.53 7.63222C228.179 6.9586 229.05 6.60755 230.264 6.60755H243.734C246.607 6.60755 246.788 3.48137 246.788 3.48137V0.578145H227.498C224.579 0.573401 222.229 1.42729 220.496 3.16353C218.759 4.87131 217.901 7.25271 217.906 10.2224C217.906 13.192 218.763 15.5687 220.496 17.3001C222.229 19.0174 224.579 19.876 227.498 19.8713H237.168C238.332 19.8713 239.184 20.1986 239.819 20.8485C240.468 21.5079 240.783 22.3618 240.783 23.4624C240.783 24.563 240.468 25.4216 239.819 26.1047C239.179 26.7736 238.322 27.1246 237.168 27.1294H222.674C219.333 27.1294 219.338 30.8153 219.338 30.8153V33.0971H239.884C242.78 33.0971 245.148 32.2669 246.881 30.5259C248.618 28.8182 249.476 26.4463 249.466 23.4624C249.471 20.4927 248.618 18.1161 246.876 16.4036Z" fill="#0066B3"/>
<path d="M256 38.6199C256 39.3836 222.41 39.9956 180.97 39.9956C139.531 39.9956 105.946 39.3789 105.946 38.6199C105.946 37.8608 139.536 37.2441 180.97 37.2441C222.405 37.2441 256 37.8608 256 38.6199Z" fill="#BED73A"/>
</g>
<defs>
<clipPath id="clip0_71_6512">
<rect width="256" height="40" fill="white"/>
</clipPath>
</defs>
</svg>
