<svg width="234" height="36" viewBox="0 0 234 36" fill="none" xmlns="http://www.w3.org/2000/svg">
<path d="M18.22 19.7H14.42V8.78H18.22V12.18H20.42V15.34H18.22V19.7ZM11.8 19.02H1.3V9H4.96V11.14H8.2V9H11.8V19.02ZM4.96 13.88V16.28H8.2V13.88H4.96ZM1.9 23.76C1.9 21.64 3.62 20.14 5.78 20.14H14.74C16.94 20.14 18.66 21.64 18.66 23.76C18.66 25.84 16.94 27.4 14.74 27.4H5.78C3.62 27.4 1.9 25.84 1.9 23.76ZM6.8 24.62H13.72C14.42 24.62 14.86 24.3 14.86 23.76C14.86 23.24 14.42 22.9 13.72 22.9H6.8C6.14 22.9 5.72 23.24 5.72 23.76C5.72 24.3 6.14 24.62 6.8 24.62ZM38.2 27.3H34.4V8.78H38.2V15.66H40.42V19.08H38.2V27.3ZM21.02 26.64V22.38C23.16 20.98 25.16 18.8 25.16 13.14V9.2H28.92V13.14C28.92 18.8 30.92 20.98 33.06 22.38V26.64C30.54 25.54 28.28 23.48 27.04 20.78C25.8 23.48 23.52 25.54 21.02 26.64ZM55 15H51.06V11.92H55V8.78H58.82V22.46H55V15ZM41.06 20.32V16.88C43.68 16.08 45.06 13.9 45.06 11.28V8.9H48.82V11.44C48.88 13.98 50.24 16.12 52.82 16.88V20.32C50.12 19.72 48.08 18.32 46.94 16.46C45.82 18.32 43.72 19.72 41.06 20.32ZM59.14 27.3H42.22V21.18H46.06V24.3H59.14V27.3ZM66.54 19.88C63.64 19.88 61.26 18.38 61.26 15.46V13.22C61.26 10.3 63.64 8.78 66.54 8.78C69.44 8.78 71.82 10.3 71.82 13.22V15.46C71.82 18.38 69.44 19.88 66.54 19.88ZM78.22 22.24H74.42V8.78H78.22V13.44H80.42V16.7H78.22V22.24ZM66.58 17.06C67.6 17.06 68.38 16.5 68.38 15.52V13.14C68.38 12.18 67.6 11.6 66.58 11.6C65.54 11.6 64.78 12.18 64.78 13.14V15.52C64.78 16.5 65.54 17.06 66.58 17.06ZM78.62 27.3H62.16V20.98H66V24.3H78.62V27.3ZM95 15.94H91.24V13.18H95V8.78H98.82V22.52H95V15.94ZM81.06 20.36V17.24C83.4 16.9 85.22 15.54 85.22 12.88V12.18H81.26V9.12H92.66V12.18H88.7V13.02C88.74 15.56 90.56 16.9 92.86 17.24V20.36C90.22 19.98 88.08 19.04 86.96 17.16C85.82 19.04 83.68 19.98 81.06 20.36ZM99.14 27.3H82.22V21H86.06V24.3H99.14V27.3ZM117.56 22.78H114L114.66 12.04H101.56V9.1H118.44L117.56 22.78ZM119.18 26.96H100.84V23.74H103.9V16.58H107.2V23.74H109.24V16.58H112.52V23.74H119.18V26.96ZM135.16 15.82H124.82C122.96 15.82 121.46 14.26 121.46 12.26C121.46 10.28 122.96 8.7 124.82 8.7H135.16C137 8.7 138.54 10.28 138.54 12.26C138.54 14.26 137 15.82 135.16 15.82ZM134.2 11.48H125.78C125.36 11.48 125.02 11.78 125.02 12.22C125.02 12.64 125.36 12.96 125.78 12.96H134.2C134.62 12.96 134.94 12.64 134.94 12.22C134.94 11.78 134.62 11.48 134.2 11.48ZM139.18 16.76V19.64H135.54V21.38H138.34V27.5H134.6V24.08H121.56V21.38H124.22L124.58 19.64H120.84V16.76H139.18ZM128.12 19.64L127.74 21.38H132.02V19.64H128.12Z" fill="#222222"/>
<path d="M141.892 19.8543C141.892 17.9652 142.145 16.2307 142.651 14.6506C143.163 13.0704 143.95 11.6093 145.014 10.2673H148.516C147.979 10.9307 147.493 11.7866 147.057 12.8349C146.627 13.8833 146.288 15.0228 146.039 16.2535C145.791 17.4791 145.667 18.6793 145.667 19.8543C145.667 21.0292 145.791 22.232 146.039 23.4627C146.288 24.6883 146.627 25.8253 147.057 26.8736C147.493 27.922 147.979 28.7779 148.516 29.4413H145.014C143.95 28.0992 143.163 26.6381 142.651 25.058C142.145 23.4779 141.892 21.7433 141.892 19.8543ZM150.136 10.442H160.916V13.4351H153.798V16.7244H160.354V19.7099H153.798V23.0069H160.916V26H150.136V10.442ZM163.242 26V10.442H168.947C170.517 10.442 171.877 10.7535 173.026 11.3764C174.181 11.9942 175.067 12.8881 175.685 14.058C176.303 15.2228 176.612 16.608 176.612 18.2134C176.612 19.8188 176.303 21.2065 175.685 22.3764C175.067 23.5463 174.181 24.4427 173.026 25.0656C171.877 25.6885 170.517 26 168.947 26H163.242ZM168.803 22.8702C169.719 22.8702 170.482 22.7157 171.089 22.4068C171.697 22.0928 172.158 21.5939 172.472 20.9102C172.786 20.2215 172.943 19.3225 172.943 18.2134C172.943 17.1043 172.783 16.2079 172.464 15.5242C172.15 14.8405 171.687 14.3442 171.074 14.0352C170.461 13.7263 169.689 13.5718 168.757 13.5718H166.904V22.8702H168.803ZM191.887 10.442V20.4848C191.887 21.6294 191.614 22.6347 191.067 23.5007C190.52 24.3616 189.75 25.0276 188.757 25.4986C187.77 25.9696 186.628 26.2051 185.331 26.2051C184.03 26.2051 182.882 25.9696 181.89 25.4986C180.902 25.0276 180.135 24.3616 179.588 23.5007C179.046 22.6347 178.775 21.6294 178.775 20.4848V10.442H182.437V20.1733C182.437 20.7203 182.558 21.209 182.801 21.6395C183.044 22.0649 183.384 22.3992 183.819 22.6423C184.26 22.8854 184.764 23.0069 185.331 23.0069C185.898 23.0069 186.4 22.8854 186.835 22.6423C187.276 22.3992 187.615 22.0649 187.853 21.6395C188.096 21.209 188.218 20.7203 188.218 20.1733V10.442H191.887ZM200.124 19.8543C200.124 21.7433 199.868 23.4779 199.356 25.058C198.85 26.6381 198.065 28.0992 197.001 29.4413H193.499C194.036 28.7779 194.52 27.922 194.95 26.8736C195.386 25.8253 195.728 24.6883 195.976 23.4627C196.224 22.232 196.348 21.0292 196.348 19.8543C196.348 18.6793 196.224 17.4791 195.976 16.2535C195.728 15.0228 195.386 13.8833 194.95 12.8349C194.52 11.7866 194.036 10.9307 193.499 10.2673H197.001C198.065 11.6093 198.85 13.0704 199.356 14.6506C199.868 16.2307 200.124 17.9652 200.124 19.8543Z" fill="#222222"/>
</svg>
