<svg width="425" height="36" viewBox="0 0 425 36" fill="none" xmlns="http://www.w3.org/2000/svg">
<g clip-path="url(#clip0_594_1096)">
<path d="M27.1153 23.282V19.2963C27.1153 15.7138 25.6783 12.4787 23.349 10.1338C21.0196 7.78575 17.8102 6.33724 14.2592 6.33724C10.7052 6.33724 7.49579 7.78575 5.16951 10.1338C2.84323 12.4818 1.40623 15.7169 1.40623 19.2963V23.282H0V19.2963C0 11.359 6.38496 4.92285 14.2592 4.92285C22.1335 4.92285 28.5185 11.359 28.5185 19.2963V23.282H27.1153Z" fill="#0066B3"/>
<path d="M14.259 8.19824C8.15402 8.19824 3.20605 13.1858 3.20605 19.3397V23.282H3.86148V19.5134C3.86148 13.6294 8.51711 8.86201 14.259 8.86201C20.0008 8.86201 24.6534 13.6294 24.6565 19.5134V23.282H25.3119V19.3397C25.3119 13.1858 20.3639 8.19824 14.259 8.19824Z" fill="#0066B3"/>
<path d="M4.87695 19.3932C4.87695 17.3523 8.63408 15.6773 13.4251 15.5036L14.419 15.4912C16.4068 15.5036 18.2438 15.7766 19.7485 16.2294L19.9732 16.3008C22.2041 17.0142 23.6411 18.137 23.6411 19.3994C23.6411 20.7766 21.9333 21.9831 19.3547 22.681C21.444 22.0328 22.801 20.9937 22.801 19.8274C22.801 18.7666 21.6871 17.8144 19.9209 17.163L19.7516 17.101C18.2685 16.5799 16.3545 16.2666 14.2652 16.2666C14.1298 16.2666 13.9944 16.2666 13.8621 16.2728L12.9051 16.3132C9.41259 16.5458 6.62474 17.6624 5.90778 19.0923C5.83701 19.2505 5.27698 20.6432 7.95097 21.8963C8.98795 22.3802 9.74799 22.6066 10.1819 22.7059C10.1634 22.7772 10.148 22.8454 10.1295 22.9168C9.81568 22.8702 9.68645 22.833 9.17257 22.6779C9.17257 22.6779 9.13257 22.6655 9.0618 22.6469C6.54474 21.9459 4.88311 20.7518 4.88311 19.3963L4.87695 19.3932Z" fill="#BED73A"/>
<path d="M15.7579 19.917C15.1732 19.582 14.4316 19.7898 14.0993 20.3791C13.767 20.9685 13.9731 21.716 14.5578 22.0479C15.1424 22.3829 15.884 22.175 16.2163 21.5857C16.5487 20.9964 16.3425 20.2489 15.7579 19.9139V19.917Z" fill="#0066B3"/>
<path d="M19.536 13.2856C19.5176 13.1367 19.4868 13.0002 19.4499 12.8731C19.4468 12.8545 19.4406 12.8358 19.4375 12.8203C19.4375 12.8203 19.4375 12.8172 19.4345 12.8141C19.2991 12.3737 19.0714 12.0542 18.7329 11.896C17.7975 11.4556 16.2681 12.321 14.6527 14.0207L14.4927 14.1944C13.428 15.3514 12.3325 16.8619 11.3571 18.5958L10.8863 19.4705C10.194 20.8073 9.66163 22.11 9.30469 23.2856H10.0186C10.2955 22.3365 10.7017 21.2912 11.2279 20.2118L11.6617 19.3619C11.7233 19.244 11.7879 19.1262 11.8556 19.0083C12.871 17.1783 14.0342 15.615 15.1389 14.4984L15.2681 14.3712C15.7543 13.8935 16.2281 13.5058 16.6743 13.2205C17.0743 12.9692 17.7482 12.6218 18.3298 12.6901C18.3729 12.6963 18.4098 12.7056 18.4498 12.7149C19.4714 13.0157 19.8499 15.5654 18.2067 18.7788C18.2067 18.7788 19.9576 15.9035 19.5391 13.2856H19.536Z" fill="#0066B3"/>
<path d="M0.760041 25.3945C0.00923126 25.3945 0 25.9218 0 25.9218V30.1061H0.612341C1.21545 30.1061 1.22468 29.5974 1.22468 29.5881V25.3945H0.760041Z" fill="#0066B3"/>
<path d="M22.8529 30.0809H21.9483C21.9483 30.0809 20.1205 27.1901 19.9236 26.883V29.566C19.9236 29.566 19.9143 30.0809 19.3143 30.0809H18.7266V25.4097H20.259C20.259 25.4097 22.0467 28.3284 22.2406 28.6479V25.9246C22.2406 25.9246 22.2498 25.4004 22.9976 25.4004H23.4591V29.5691C23.4591 29.5691 23.4499 30.084 22.8499 30.084" fill="#0066B3"/>
<path d="M4.69242 25.3945H3.69852C3.64313 25.3945 3.22772 25.4131 2.84616 25.8784L1.30762 27.7519L2.84616 29.6253C3.22464 30.0875 3.64313 30.1061 3.69852 30.1092H4.69242L2.75693 27.7519L4.69242 25.3976V25.3945Z" fill="#0066B3"/>
<path d="M15.7362 25.3291C14.9116 25.3291 14.2715 25.5462 13.8592 25.9929C13.4776 26.3868 13.2715 26.9606 13.2715 27.674C13.2715 28.5549 13.4961 29.2001 13.9392 29.6064C14.3331 29.9724 14.9608 30.1616 15.7762 30.1616C16.524 30.1616 17.0932 30.0034 17.484 29.6839C17.9671 29.2993 18.2102 28.6449 18.2102 27.7454C18.2102 26.942 18.0348 26.3496 17.6994 25.9743C17.3148 25.5493 16.6594 25.3322 15.7362 25.3322V25.3291ZM16.7671 28.7751C16.5824 29.0698 16.2563 29.2187 15.8039 29.2187C15.2654 29.2187 14.8993 29.0698 14.7054 28.7751C14.57 28.5456 14.4992 28.2013 14.4992 27.7236C14.4992 27.308 14.5885 26.973 14.7639 26.7249C14.9793 26.4178 15.3054 26.2689 15.727 26.2689C16.1486 26.2689 16.4747 26.3992 16.6901 26.6753C16.8871 26.9327 16.9855 27.2677 16.9855 27.705C16.9855 28.1703 16.9055 28.5363 16.7701 28.7751H16.7671Z" fill="#0066B3"/>
<path d="M7.89281 27.0906C7.6128 26.7773 7.1297 26.6191 6.45274 26.6191C5.84655 26.6191 5.37883 26.7773 5.07728 27.1061C4.79726 27.3946 4.64648 27.8164 4.64648 28.3406C4.64648 28.9858 4.81265 29.4603 5.13574 29.7581C5.42499 30.0248 5.88347 30.1644 6.48351 30.1644C7.03123 30.1644 7.44971 30.0466 7.73588 29.8139C8.08975 29.5317 8.26822 29.0509 8.26822 28.3933C8.26822 27.804 8.13898 27.3698 7.89281 27.0937V27.0906ZM7.13585 29.0757C7.01277 29.2711 6.79737 29.3704 6.49582 29.3704C6.1358 29.3704 5.89578 29.2711 5.76347 29.0757C5.67423 28.9237 5.625 28.6942 5.625 28.3778C5.625 28.1018 5.68346 27.8784 5.80039 27.7141C5.94502 27.5093 6.16041 27.4101 6.44043 27.4101C6.72044 27.4101 6.93584 27.4969 7.08046 27.6799C7.2097 27.8505 7.2774 28.0739 7.2774 28.3654C7.2774 28.6756 7.22509 28.9175 7.13277 29.0757H7.13585Z" fill="#0066B3"/>
<path d="M10.1698 25.4102C9.74209 25.4102 9.40054 25.5342 9.14514 25.7824C8.88974 26.0274 8.76358 26.3717 8.76666 26.7997V30.0845H9.64363C9.64363 30.0845 10.0344 30.0845 10.0344 29.6906V28.3103H12.2438H12.2776C12.5576 28.3103 12.7207 28.1707 12.7238 27.8822V27.8698V27.4449H10.0313V26.8028C10.0313 26.6446 10.0806 26.5237 10.1729 26.4306C10.2683 26.3345 10.3975 26.2817 10.5729 26.2817H12.6746C12.9546 26.2817 13.1146 26.1422 13.1207 25.8506V25.8382V25.4133H10.1667L10.1698 25.4102Z" fill="#0066B3"/>
<path d="M28.1825 27.6772C27.9301 27.4291 27.5824 27.305 27.1578 27.305H25.7546C25.5762 27.305 25.45 27.2554 25.3546 27.1592C25.2623 27.0662 25.2131 26.9421 25.2131 26.7839C25.2131 26.6257 25.2623 26.5017 25.3546 26.4117C25.45 26.3156 25.5762 26.2659 25.7546 26.2659H27.724C28.1455 26.2659 28.1702 25.8162 28.1702 25.8162V25.3975H25.3485C24.9207 25.3975 24.5792 25.5215 24.3238 25.7697C24.0684 26.0147 23.9453 26.359 23.9453 26.787C23.9453 27.2151 24.0715 27.5563 24.3238 27.8075C24.5761 28.0556 24.9207 28.1766 25.3485 28.1766H26.7639C26.9332 28.1766 27.0593 28.2231 27.1516 28.3162C27.247 28.4123 27.2932 28.5333 27.2932 28.6915C27.2932 28.8497 27.247 28.9738 27.1516 29.073C27.0593 29.1692 26.9332 29.2188 26.7639 29.2219H24.6438C24.1546 29.2219 24.1576 29.7523 24.1576 29.7523V30.0811H27.1639C27.5886 30.0811 27.9332 29.9601 28.1886 29.712C28.444 29.4669 28.5671 29.1226 28.5671 28.6946C28.5671 28.2666 28.444 27.9254 28.1886 27.6772H28.1825Z" fill="#0066B3"/>
<path d="M29.5151 30.8782C29.5151 30.9868 24.601 31.0767 18.5422 31.0767C12.4834 31.0767 7.56934 30.9868 7.56934 30.8782C7.56934 30.7696 12.4834 30.6797 18.5422 30.6797C24.601 30.6797 29.5151 30.7696 29.5151 30.8782Z" fill="#BED73A"/>
<path d="M39.4448 5.28027C36.0323 5.28027 35.9893 7.67481 35.9893 7.67481V26.6667H38.774C41.5096 26.6667 41.5526 24.3591 41.5526 24.3125V5.28027H39.4479H39.4448Z" fill="#0066B3"/>
<path d="M139.746 26.5642H135.644C135.644 26.5642 127.348 13.4438 126.456 12.048V24.2254C126.456 24.272 126.416 26.5642 123.693 26.5642H121.016V5.35139H127.973C127.973 5.35139 136.087 18.6051 136.976 20.0505V7.68699C136.976 7.68699 137.023 5.30176 140.414 5.30176H142.506V24.2223C142.506 24.2689 142.463 26.5611 139.746 26.5611" fill="#0066B3"/>
<path d="M57.2949 5.28027H52.7777C52.5315 5.28027 50.636 5.36712 48.9098 7.4701L41.9248 15.9751L48.9098 24.48C50.636 26.5799 52.5315 26.6667 52.7777 26.6698H57.2949L48.5159 15.9751L57.2949 5.28027Z" fill="#0066B3"/>
<path d="M107.439 4.98828C103.691 4.98828 100.789 5.97773 98.9183 8.00627C97.1797 9.79907 96.2412 12.4076 96.2412 15.6396C96.2412 19.6409 97.2659 22.5689 99.2752 24.4114C101.06 26.0708 103.909 26.9269 107.611 26.9269C111.002 26.9269 113.584 26.2042 115.368 24.765C117.556 23.0156 118.667 20.0503 118.667 15.9591C118.667 12.3177 117.867 9.62848 116.353 7.91322C114.611 5.98084 111.627 4.99138 107.436 4.99138L107.439 4.98828ZM112.116 20.6365C111.27 21.9796 109.799 22.6527 107.743 22.6527C105.294 22.6527 103.642 21.9796 102.752 20.6365C102.131 19.6006 101.814 18.028 101.814 15.8661C101.814 13.9833 102.217 12.4511 103.017 11.3282C103.999 9.93245 105.472 9.25937 107.386 9.25937C109.3 9.25937 110.777 9.8487 111.756 11.1049C112.648 12.2743 113.094 13.8003 113.094 15.7792C113.094 17.8915 112.738 19.554 112.113 20.6396L112.116 20.6365Z" fill="#0066B3"/>
<path d="M71.8187 12.9812C70.5417 11.5637 68.3539 10.8379 65.2798 10.8379C62.532 10.8379 60.4057 11.5637 59.0334 13.0463C57.7594 14.3615 57.0732 16.2752 57.0732 18.645C57.0732 21.5792 57.8241 23.7256 59.298 25.078C60.6057 26.2938 62.6951 26.9235 65.4091 26.9235C67.8954 26.9235 69.7909 26.3931 71.0986 25.3385C72.7018 24.0544 73.5172 21.8801 73.5172 18.8807C73.5172 16.2101 72.9295 14.2374 71.8187 12.9812ZM68.3877 21.9886C67.8277 22.8819 66.8492 23.3255 65.486 23.3255C63.8582 23.3255 62.7628 22.8788 62.1689 21.9886C61.7597 21.3 61.5443 20.2548 61.5443 18.8187C61.5443 17.5687 61.815 16.5513 62.3443 15.8069C62.9966 14.8795 63.9752 14.4328 65.246 14.4328C66.5168 14.4328 67.4984 14.8236 68.1477 15.658C68.7416 16.4365 69.037 17.4477 69.037 18.7628C69.037 20.1648 68.8 21.269 68.3846 21.9886H68.3877Z" fill="#0066B3"/>
<path d="M82.1608 5.35158C80.2222 5.34847 78.6621 5.90679 77.5113 7.04202C76.3574 8.15865 75.785 9.71572 75.7881 11.6543V26.5644H79.776C79.776 26.5644 81.5453 26.555 81.5453 24.7809V18.5153H91.5766L91.7305 18.5091C93.0075 18.5215 93.7368 17.8764 93.7583 16.5613L93.7645 16.5054V14.573H81.5484V11.6605C81.5484 10.944 81.773 10.3857 82.1884 9.97316C82.6162 9.53272 83.2008 9.30009 84.0039 9.30009H93.546C94.8199 9.30319 95.5492 8.66423 95.5707 7.34599L95.5769 7.28706V5.35158H82.1608Z" fill="#0066B3"/>
<path d="M163.941 15.6492C162.79 14.5232 161.215 13.9649 159.285 13.9649H152.91C152.1 13.9649 151.522 13.7447 151.094 13.3073C150.679 12.8917 150.454 12.3179 150.454 11.6076C150.454 10.8911 150.679 10.3297 151.094 9.91405C151.525 9.4736 152.104 9.24408 152.91 9.24408H161.855C163.763 9.24408 163.883 7.20003 163.883 7.20003V5.30177H151.073C149.134 5.29867 147.574 5.85698 146.423 6.99222C145.269 8.10884 144.7 9.66591 144.703 11.6076C144.703 13.5493 145.272 15.1033 146.423 16.2354C147.574 17.3582 149.134 17.9196 151.073 17.9165H157.495C158.267 17.9165 158.833 18.1305 159.255 18.5555C159.685 18.9866 159.895 19.5449 159.895 20.2645C159.895 20.9841 159.685 21.5456 159.255 21.9922C158.83 22.4296 158.261 22.6591 157.495 22.6622H147.869C145.651 22.6622 145.654 25.0722 145.654 25.0722V26.5642H159.298C161.221 26.5642 162.793 26.0214 163.944 24.883C165.098 23.7664 165.667 22.2155 165.661 20.2645C165.664 18.3229 165.098 16.7689 163.941 15.6492Z" fill="#0066B3"/>
<path d="M170 30.1739C170 30.6733 147.694 31.0734 120.176 31.0734C92.6572 31.0734 70.3545 30.6702 70.3545 30.1739C70.3545 29.6776 92.6603 29.2744 120.176 29.2744C147.691 29.2744 170 29.6776 170 30.1739Z" fill="#BED73A"/>
</g>
<rect x="180" y="6" width="1" height="24" fill="#D9D9D9"/>
<path d="M209.22 19.7H205.42V8.78H209.22V12.18H211.42V15.34H209.22V19.7ZM202.8 19.02H192.3V9H195.96V11.14H199.2V9H202.8V19.02ZM195.96 13.88V16.28H199.2V13.88H195.96ZM192.9 23.76C192.9 21.64 194.62 20.14 196.78 20.14H205.74C207.94 20.14 209.66 21.64 209.66 23.76C209.66 25.84 207.94 27.4 205.74 27.4H196.78C194.62 27.4 192.9 25.84 192.9 23.76ZM197.8 24.62H204.72C205.42 24.62 205.86 24.3 205.86 23.76C205.86 23.24 205.42 22.9 204.72 22.9H197.8C197.14 22.9 196.72 23.24 196.72 23.76C196.72 24.3 197.14 24.62 197.8 24.62ZM229.2 27.3H225.4V8.78H229.2V15.66H231.42V19.08H229.2V27.3ZM212.02 26.64V22.38C214.16 20.98 216.16 18.8 216.16 13.14V9.2H219.92V13.14C219.92 18.8 221.92 20.98 224.06 22.38V26.64C221.54 25.54 219.28 23.48 218.04 20.78C216.8 23.48 214.52 25.54 212.02 26.64ZM246 15H242.06V11.92H246V8.78H249.82V22.46H246V15ZM232.06 20.32V16.88C234.68 16.08 236.06 13.9 236.06 11.28V8.9H239.82V11.44C239.88 13.98 241.24 16.12 243.82 16.88V20.32C241.12 19.72 239.08 18.32 237.94 16.46C236.82 18.32 234.72 19.72 232.06 20.32ZM250.14 27.3H233.22V21.18H237.06V24.3H250.14V27.3ZM257.54 19.88C254.64 19.88 252.26 18.38 252.26 15.46V13.22C252.26 10.3 254.64 8.78 257.54 8.78C260.44 8.78 262.82 10.3 262.82 13.22V15.46C262.82 18.38 260.44 19.88 257.54 19.88ZM269.22 22.24H265.42V8.78H269.22V13.44H271.42V16.7H269.22V22.24ZM257.58 17.06C258.6 17.06 259.38 16.5 259.38 15.52V13.14C259.38 12.18 258.6 11.6 257.58 11.6C256.54 11.6 255.78 12.18 255.78 13.14V15.52C255.78 16.5 256.54 17.06 257.58 17.06ZM269.62 27.3H253.16V20.98H257V24.3H269.62V27.3ZM286 15.94H282.24V13.18H286V8.78H289.82V22.52H286V15.94ZM272.06 20.36V17.24C274.4 16.9 276.22 15.54 276.22 12.88V12.18H272.26V9.12H283.66V12.18H279.7V13.02C279.74 15.56 281.56 16.9 283.86 17.24V20.36C281.22 19.98 279.08 19.04 277.96 17.16C276.82 19.04 274.68 19.98 272.06 20.36ZM290.14 27.3H273.22V21H277.06V24.3H290.14V27.3ZM308.56 22.78H305L305.66 12.04H292.56V9.1H309.44L308.56 22.78ZM310.18 26.96H291.84V23.74H294.9V16.58H298.2V23.74H300.24V16.58H303.52V23.74H310.18V26.96ZM326.16 15.82H315.82C313.96 15.82 312.46 14.26 312.46 12.26C312.46 10.28 313.96 8.7 315.82 8.7H326.16C328 8.7 329.54 10.28 329.54 12.26C329.54 14.26 328 15.82 326.16 15.82ZM325.2 11.48H316.78C316.36 11.48 316.02 11.78 316.02 12.22C316.02 12.64 316.36 12.96 316.78 12.96H325.2C325.62 12.96 325.94 12.64 325.94 12.22C325.94 11.78 325.62 11.48 325.2 11.48ZM330.18 16.76V19.64H326.54V21.38H329.34V27.5H325.6V24.08H312.56V21.38H315.22L315.58 19.64H311.84V16.76H330.18ZM319.12 19.64L318.74 21.38H323.02V19.64H319.12Z" fill="#222222"/>
<path d="M332.633 20.0703C332.633 16.0312 333.943 12.6797 336.027 9.7793H339.529C338.025 11.9277 336.414 16.2031 336.414 20.0703C336.414 23.9375 338.025 28.2129 339.529 30.3828H336.027C333.943 27.4609 332.633 24.1094 332.633 20.0703ZM341.119 26V10.4453H351.883V13.4316H344.771V16.7188H351.324V19.7051H344.771V23.0137H351.904V26H341.119ZM359.918 26H354.225V10.4453H359.918C364.666 10.4453 367.588 13.3672 367.588 18.2227C367.588 23.0781 364.666 26 359.918 26ZM357.877 22.8633H359.789C362.453 22.8633 363.914 21.5957 363.914 18.2227C363.914 14.8496 362.453 13.5605 359.746 13.5605H357.877V22.8633ZM379.189 10.4453H382.863V20.4785C382.863 23.959 380.221 26.2148 376.311 26.2148C372.379 26.2148 369.758 23.959 369.758 20.4785V10.4453H373.41V20.1777C373.41 21.832 374.592 23.0137 376.311 23.0137C378.029 23.0137 379.189 21.832 379.189 20.1777V10.4453ZM391.35 20.0703C391.35 24.1094 390.039 27.4609 387.955 30.3828H384.453C385.957 28.2129 387.568 23.9375 387.568 20.0703C387.568 16.2031 385.957 11.9277 384.453 9.7793H387.955C390.039 12.6797 391.35 16.0312 391.35 20.0703Z" fill="#222222"/>
<defs>
<clipPath id="clip0_594_1096">
<rect width="170" height="26.1538" fill="white" transform="translate(0 4.92285)"/>
</clipPath>
</defs>
</svg>
